<svg width="24" height="42" viewBox="0 0 24 42" fill="none" xmlns="http://www.w3.org/2000/svg">
<path id="Vector" d="M1.52588e-05 29.6325C0.000431061 32.297 0.825279 34.888 2.34857 37.0099C3.87186 39.1318 6.00986 40.6679 8.43599 41.3836C10.8621 42.0993 13.443 41.9552 15.7845 40.9734C18.1259 39.9916 20.0992 38.2259 21.403 35.9462C22.7067 33.6665 23.2692 30.998 23.0045 28.3483C22.7398 25.6987 21.6625 23.2135 19.9372 21.2723C18.2119 19.3312 15.9333 18.0409 13.4496 17.5984C10.9659 17.156 8.41348 17.5857 6.18233 18.822C6.95347 15.796 8.04098 13.2616 9.34269 11.2396C11.9461 7.18872 15.3569 5.22951 18.949 5.22951C19.6045 5.22951 20.2332 4.95404 20.6967 4.46371C21.1602 3.97337 21.4206 3.30834 21.4206 2.6149C21.4206 1.92147 21.1602 1.25643 20.6967 0.766094C20.2332 0.275761 19.6045 0.000293732 18.949 0.000293732C13.4423 0.000293732 8.61109 3.07856 5.253 8.29732C1.92457 13.4777 1.52588e-05 20.7882 1.52588e-05 29.6325Z" fill="#DADADA"/>
</svg>
